<svg xmlns="http://www.w3.org/2000/svg" xmlns:xlink="http://www.w3.org/1999/xlink" viewBox="0 0 750 1125"><defs><style>.cls-1{fill:#bd411e;}.cls-2{fill:#fff;}.cls-3{clip-path:url(#clip-path);}.cls-4{fill:#862323;}.cls-10,.cls-11,.cls-12,.cls-13,.cls-14,.cls-15,.cls-16,.cls-17,.cls-18,.cls-19,.cls-20,.cls-22,.cls-23,.cls-24,.cls-25,.cls-26,.cls-27,.cls-28,.cls-29,.cls-30,.cls-31,.cls-32,.cls-33,.cls-34,.cls-35,.cls-36,.cls-37,.cls-38,.cls-4,.cls-6,.cls-7,.cls-8,.cls-9{stroke:#231815;}.cls-22,.cls-30,.cls-35,.cls-4,.cls-6{stroke-miterlimit:10;}.cls-10,.cls-12,.cls-13,.cls-14,.cls-16,.cls-17,.cls-18,.cls-19,.cls-20,.cls-22,.cls-23,.cls-24,.cls-25,.cls-26,.cls-27,.cls-28,.cls-29,.cls-30,.cls-31,.cls-32,.cls-33,.cls-34,.cls-35,.cls-36,.cls-37,.cls-38,.cls-4,.cls-6,.cls-7,.cls-8,.cls-9{stroke-width:3px;}.cls-5{fill:#992b2b;}.cls-6{fill:#ab372a;}.cls-7{fill:#7e2216;}.cls-10,.cls-11,.cls-12,.cls-13,.cls-14,.cls-15,.cls-16,.cls-17,.cls-18,.cls-19,.cls-20,.cls-22,.cls-23,.cls-24,.cls-25,.cls-26,.cls-27,.cls-28,.cls-29,.cls-30,.cls-31,.cls-32,.cls-33,.cls-34,.cls-35,.cls-36,.cls-37,.cls-38,.cls-7,.cls-8,.cls-9{stroke-linecap:round;}.cls-10,.cls-11,.cls-12,.cls-13,.cls-14,.cls-15,.cls-16,.cls-17,.cls-18,.cls-19,.cls-20,.cls-23,.cls-24,.cls-25,.cls-26,.cls-27,.cls-28,.cls-29,.cls-31,.cls-32,.cls-33,.cls-34,.cls-36,.cls-37,.cls-38,.cls-7,.cls-8,.cls-9{stroke-linejoin:round;}.cls-8{fill:#36553b;}.cls-9{fill:#fa9698;}.cls-10{fill:#2e2d2a;}.cls-11,.cls-17{fill:#d7553c;}.cls-11,.cls-15{stroke-width:3.55px;}.cls-12,.cls-15,.cls-22{fill:none;}.cls-13{fill:#eee4da;}.cls-14{fill:#ff7310;}.cls-16{fill:#f3a71e;}.cls-18{fill:#262521;}.cls-19,.cls-35{fill:#f8eacf;}.cls-20{fill:#fbd2b4;}.cls-21,.cls-30{fill:#231815;}.cls-23{fill:#3a8964;}.cls-24{fill:#222a22;}.cls-25{fill:#af4d47;}.cls-26{fill:#3e465f;}.cls-27{fill:#614134;}.cls-28{fill:#fdfaf5;}.cls-29{fill:#d24206;}.cls-31{fill:#fffefb;}.cls-32{fill:#355c3f;}.cls-33{fill:#ff8342;}.cls-34{fill:#275086;}.cls-36{fill:#d44202;}.cls-37{fill:#654433;}.cls-38{fill:#e68d93;}</style><clipPath id="clip-path"><rect class="cls-1" x="79.23" y="98" width="598.52" height="930.19" rx="109.07"/></clipPath></defs><title>资源 51</title><g id="图层_2" data-name="图层 2"><g id="_1" data-name="1"><rect id="背景" class="cls-2" width="750" height="1125"/><rect class="cls-1" x="79.23" y="98" width="598.52" height="930.19" rx="109.07"/><g class="cls-3"><path class="cls-4" d="M676.12,525.65c-153.93,0-599.24,184.62-599.24,184.62v26.47l1,193.33s-8,100.67,94.4,100.67,132,.93,132,.93l-.16,0s282.13-243.09,372-243.09"/><g id="地砖"><path class="cls-5" d="M268.29,822.45s1.55,18.39,33.29,19.16,31-19.16,31-19.16-2.32-24.65-22.45-21.32S268.29,822.45,268.29,822.45Z"/><path class="cls-5" d="M619.44,670.52s49.88-14.71,46.79,7.74-73.55,23.22-68.91,11.61S619.44,670.52,619.44,670.52Z"/><path class="cls-5" d="M332,888.84s45.94-.78,46.45,7.74S348,925.23,318.61,916.71,297.91,886.9,332,888.84Z"/><path class="cls-5" d="M396,828.37s-17,26.35,27.1,27.54,62.71-17.57,53.42-27.54S409.19,768.67,396,828.37Z"/><path class="cls-5" d="M182.36,940.71s12.38-16.74,37.93-11.08,53.42,49.79,20.13,46.69S181.58,975.55,182.36,940.71Z"/><path class="cls-5" d="M98.74,742.52s14.71-7,29.42,1.93-25.6,29-51.12,24.37S69.32,740.59,98.74,742.52Z"/><path class="cls-5" d="M156.81,864.84s18.8-17.39,46.45-11.68,20.59,31.74,9.29,32.3-61.94,23-70.45,7.38S156.81,864.84,156.81,864.84Z"/><path class="cls-6" d="M269.07,1028.19S578.55,763.74,677.74,763.74"/><path class="cls-6" d="M78.49,733.23S488,545.1,677.74,545.1"/><path class="cls-6" d="M78.49,656.3S584,512.07,677.74,512.07"/><line class="cls-6" x1="80.37" y1="634" x2="112.1" y2="624.98"/></g><g id="楼"><g id="底层"><polyline class="cls-7" points="79.63 494.3 115.14 637.21 341.92 580.86 306.58 438.62"/><rect class="cls-8" x="163.78" y="486.4" width="94.89" height="125.03" transform="translate(-126.13 67.13) rotate(-13.95)"/><rect class="cls-9" x="131.9" y="503.49" width="19.82" height="114.58" transform="translate(-131.04 50.74) rotate(-13.95)"/><rect class="cls-9" x="269.55" y="469.29" width="19.82" height="114.58" transform="translate(-118.73 82.92) rotate(-13.95)"/><rect class="cls-10" x="172.24" y="492.43" width="80.08" height="118.84" transform="translate(-126.8 67.47) rotate(-13.95)"/></g><g id="顶3"><polyline class="cls-11" points="84.78 468.32 41.41 502.76 346.08 427.06 287.52 417.95"/><line class="cls-12" x1="185.01" y1="443.42" x2="190.55" y2="465.71"/><line class="cls-12" x1="193.28" y1="441.36" x2="201.26" y2="463.05"/><line class="cls-12" x1="202.17" y1="439.16" x2="211.59" y2="460.48"/><line class="cls-12" x1="210.68" y1="437.04" x2="222.86" y2="457.68"/><line class="cls-12" x1="219.57" y1="434.83" x2="234.32" y2="454.83"/><line class="cls-12" x1="228.78" y1="432.54" x2="244.65" y2="452.27"/><line class="cls-12" x1="237.3" y1="430.43" x2="254.92" y2="449.71"/><line class="cls-12" x1="245.82" y1="428.31" x2="264.56" y2="447.32"/><line class="cls-12" x1="254.51" y1="426.15" x2="275.36" y2="444.64"/><line class="cls-12" x1="262.44" y1="424.18" x2="285.97" y2="442"/><line class="cls-12" x1="271.44" y1="421.94" x2="297.62" y2="439.11"/><line class="cls-12" x1="280.43" y1="419.71" x2="310.77" y2="435.84"/><line class="cls-12" x1="287.52" y1="417.95" x2="325.6" y2="432.15"/><line class="cls-12" x1="178.22" y1="445.11" x2="181.31" y2="468"/><line class="cls-12" x1="169.33" y1="447.32" x2="170.98" y2="470.57"/><line class="cls-12" x1="160.81" y1="449.43" x2="159.71" y2="473.37"/><line class="cls-12" x1="151.92" y1="451.64" x2="148.25" y2="476.22"/><line class="cls-12" x1="142.72" y1="453.93" x2="137.92" y2="478.78"/><line class="cls-12" x1="134.19" y1="456.04" x2="127.65" y2="481.34"/><line class="cls-12" x1="125.67" y1="458.16" x2="118.01" y2="483.73"/><line class="cls-12" x1="116.98" y1="460.32" x2="107.21" y2="486.41"/><line class="cls-12" x1="109.05" y1="462.29" x2="96.6" y2="489.05"/><line class="cls-12" x1="100.06" y1="464.53" x2="84.95" y2="491.94"/><line class="cls-12" x1="91.06" y1="466.76" x2="71.8" y2="495.21"/><line class="cls-12" x1="83.97" y1="468.52" x2="56.97" y2="498.9"/><path class="cls-13" d="M40.79,504c2.29,12,19.9,8.2,16.43-4.08l.63-.16c2.29,12,19.9,8.21,16.43-4.08l.63-.16c2.29,12,19.9,8.21,16.43-4.08l.63-.16c2.29,12,19.9,8.21,16.43-4.08L109,487c2.29,12,19.9,8.21,16.43-4.08l.63-.16c2.29,12,19.9,8.21,16.43-4.08l.63-.16c2.29,12,19.9,8.21,16.43-4.08l.63-.15c2.28,12,19.9,8.21,16.43-4.09l.63-.15c2.28,12,19.9,8.21,16.43-4.08l.63-.16c2.28,12,19.9,8.21,16.43-4.08l.63-.16c2.28,12,19.9,8.21,16.43-4.08l.63-.16c2.28,12,19.9,8.21,16.43-4.08l.63-.16c2.28,12,19.9,8.21,16.43-4.08l.63-.16c2.28,12,19.9,8.21,16.43-4.08l.63-.15c2.28,12,19.9,8.21,16.43-4.09l.63-.15c2.28,12,19.9,8.21,16.43-4.08l.63-.16c2.28,12,19.9,8.21,16.43-4.08l.63-.16c2.28,12,19.9,8.21,16.43-4.08h0"/></g><g id="顶2"><polyline class="cls-7" points="70.81 412.1 84.78 468.32 287.52 417.95 273.55 361.72"/><polyline class="cls-11" points="75 385.93 39.93 419.77 308.91 352.94 259.55 342.87"/><path class="cls-14" d="M185.18,391c8.22.62,14.61,4.29,16,10,2,8.23-7.06,17.57-20.34,20.87s-25.7-.7-27.74-8.93c-1.47-5.9,2.8-12.38,10.24-16.79"/><line class="cls-12" x1="183.95" y1="434.07" x2="181.16" y2="422.87"/><line class="cls-12" x1="188.34" y1="432.98" x2="185.55" y2="421.78"/><line class="cls-12" x1="179.66" y1="435.14" x2="176.88" y2="423.93"/><line class="cls-12" x1="192.53" y1="431.94" x2="189.34" y2="419.09"/><line class="cls-12" x1="175.62" y1="436.14" x2="172.42" y2="423.29"/><path class="cls-14" d="M121,406.91c8.22.62,14.61,4.29,16,10,2,8.23-7.06,17.58-20.34,20.88s-25.7-.7-27.75-8.93c-1.46-5.91,2.81-12.39,10.25-16.8"/><line class="cls-12" x1="119.72" y1="450.03" x2="116.94" y2="438.82"/><line class="cls-12" x1="124.11" y1="448.94" x2="121.33" y2="437.73"/><line class="cls-12" x1="115.44" y1="451.09" x2="112.66" y2="439.89"/><line class="cls-12" x1="128.31" y1="447.9" x2="125.12" y2="435.04"/><line class="cls-12" x1="111.39" y1="452.1" x2="108.2" y2="439.25"/><path class="cls-14" d="M251.36,374.51c8.22.62,14.62,4.29,16,10,2.05,8.23-7.06,17.58-20.34,20.88s-25.7-.7-27.74-8.93c-1.47-5.9,2.81-12.39,10.25-16.79"/><line class="cls-12" x1="250.13" y1="417.63" x2="247.34" y2="406.42"/><line class="cls-12" x1="254.52" y1="416.54" x2="251.73" y2="405.33"/><line class="cls-12" x1="245.85" y1="418.69" x2="243.06" y2="407.49"/><line class="cls-12" x1="258.71" y1="415.5" x2="255.52" y2="402.64"/><line class="cls-12" x1="241.8" y1="419.7" x2="238.6" y2="406.85"/><path class="cls-13" d="M41,420.42a8.54,8.54,0,0,0,16.58-4.12,8.54,8.54,0,1,0,16.58-4.12,8.54,8.54,0,0,0,16.58-4.12,8.54,8.54,0,0,0,16.58-4.12,8.54,8.54,0,0,0,16.58-4.12,8.54,8.54,0,0,0,16.58-4.12,8.54,8.54,0,0,0,16.58-4.12,8.54,8.54,0,0,0,16.58-4.12,8.54,8.54,0,0,0,16.58-4.12,8.54,8.54,0,0,0,16.58-4.12,8.54,8.54,0,1,0,16.58-4.12A8.54,8.54,0,1,0,240,371a8.54,8.54,0,1,0,16.58-4.12,8.54,8.54,0,1,0,16.58-4.12,8.54,8.54,0,1,0,16.58-4.12A8.54,8.54,0,0,0,306.42,355"/><line class="cls-15" x1="135.11" y1="372.99" x2="125.67" y2="397.23"/><line class="cls-15" x1="124.14" y1="375.71" x2="112.55" y2="400.55"/><line class="cls-15" x1="113.81" y1="378.28" x2="98.74" y2="403.83"/><line class="cls-15" x1="103.13" y1="381.33" x2="83.62" y2="407.64"/><line class="cls-12" x1="93.9" y1="383.23" x2="68.96" y2="411.82"/><line class="cls-12" x1="83.1" y1="385.91" x2="53.39" y2="415.81"/><line class="cls-15" x1="165.63" y1="365.4" x2="170.67" y2="385.69"/><line class="cls-15" x1="178.4" y1="362.23" x2="187.69" y2="381.85"/><line class="cls-15" x1="188.65" y1="359.68" x2="202.98" y2="377.66"/><line class="cls-15" x1="198.42" y1="357.25" x2="217.97" y2="374.92"/><line class="cls-15" x1="209.39" y1="354.53" x2="231.68" y2="371.36"/><line class="cls-15" x1="219.72" y1="351.96" x2="245.65" y2="367.89"/><line class="cls-15" x1="230.59" y1="349.66" x2="260.85" y2="364.12"/><line class="cls-12" x1="239.64" y1="347.02" x2="275.36" y2="360.72"/><line class="cls-12" x1="250.44" y1="344.33" x2="290.35" y2="357.03"/><line class="cls-15" x1="155.13" y1="368.01" x2="156.16" y2="390.89"/><line class="cls-15" x1="144.88" y1="370.56" x2="140.64" y2="393.15"/></g><g id="顶"><polyline class="cls-7" points="72.27 325.43 82.85 368.02 241.95 328.49 231.37 285.9"/><polyline class="cls-16" points="137.26 311.15 145.29 343.47 176.47 335.72 168.44 303.4"/><g id="灯"><g id="灯笼"><path class="cls-14" d="M109.87,319.25c3.48,1.38,6,3.81,6.8,7,1.61,6.47-4.61,13.59-13.89,15.89s-18.1-1.07-19.71-7.54c-.83-3.35.43-6.86,3.12-9.8"/><line class="cls-12" x1="105.57" y1="353.35" x2="102.78" y2="342.14"/><line class="cls-12" x1="109.96" y1="352.26" x2="107.17" y2="341.05"/><line class="cls-12" x1="101.29" y1="354.41" x2="98.5" y2="343.21"/><line class="cls-12" x1="114.15" y1="351.22" x2="110.96" y2="338.36"/><line class="cls-12" x1="97.24" y1="355.42" x2="94.04" y2="342.57"/></g><g id="灯笼-2" data-name="灯笼"><path class="cls-14" d="M218.7,292.21c3.47,1.38,6,3.82,6.8,7,1.61,6.47-4.61,13.59-13.89,15.89S193.5,314,191.9,307.56c-.84-3.35.42-6.86,3.11-9.8"/><line class="cls-12" x1="214.39" y1="326.31" x2="211.61" y2="315.1"/><line class="cls-12" x1="218.78" y1="325.22" x2="216" y2="314.01"/><line class="cls-12" x1="210.11" y1="327.37" x2="207.33" y2="316.17"/><line class="cls-12" x1="222.98" y1="324.18" x2="219.79" y2="311.33"/><line class="cls-12" x1="206.07" y1="328.38" x2="202.87" y2="315.53"/></g></g><path class="cls-17" d="M88.43,276.76s16.26,7.66,51.32-1.05,48.86-23.84,48.86-23.84,32.25,31.34,78.33,19.89L38.53,328.51l-5,1.24S94.64,310.32,88.43,276.76Z"/><path class="cls-13" d="M35.94,331c1.77,9.91,17.83,6.23,12.83-4.56l.65-.16c-.35,10.52,18.18,9,12.87-3.2l.66-.16c-.35,10.51,18.18,9,12.87-3.2l.65-.16c-.35,10.51,18.18,9,12.87-3.2l.65-.16c-.34,10.51,18.19,9,12.88-3.2l.65-.16c-.35,10.51,18.18,9,12.87-3.2l.65-.16c-.34,10.51,18.19,9,12.87-3.2l.66-.16c-.35,10.51,18.18,9,12.87-3.2l.65-.16c-.35,10.51,18.18,9,12.87-3.2l.66-.16c-.35,10.51,18.18,9,12.87-3.2l.65-.16c-.35,10.51,18.18,9,12.87-3.2l.65-.16c-.34,10.51,18.19,9,12.88-3.2l.65-.16c-.35,10.51,18.18,9,12.87-3.2l.65-.16c-.34,10.51,18.19,9,12.87-3.2l.66-.16c-.35,10.51,18.18,9,12.87-3.2l.65-.16c-.35,10.51,18.18,9,12.87-3.2l.66-.16c-.35,10.51,18.18,9,12.87-3.2l.07,0"/><path class="cls-12" d="M105.36,279.8,95,313.76"/><path class="cls-12" d="M97.14,279.73l-18.07,37.2"/><line class="cls-12" x1="151.38" y1="272.76" x2="160.09" y2="297.35"/><line class="cls-12" x1="158.52" y1="270.99" x2="170.47" y2="295"/><line class="cls-12" x1="165.25" y1="266.95" x2="181.74" y2="292.2"/><line class="cls-12" x1="172.46" y1="263.35" x2="193.01" y2="288.6"/><line class="cls-12" x1="178.68" y1="259.66" x2="205.22" y2="286.36"/><line class="cls-12" x1="184.74" y1="255.32" x2="220.81" y2="281.69"/><path class="cls-12" d="M143.75,274.68l6.08,24.45"/><path class="cls-12" d="M136.24,276.54l3.88,25.62"/><line class="cls-12" x1="129.1" y1="278.32" x2="129.78" y2="305.13"/><path class="cls-12" d="M121.12,279.41l-2.61,28.52"/><path class="cls-12" d="M112.67,280.82l-5.8,29.2"/></g><g id="栏"><polygon class="cls-7" points="75 385.93 71.27 370.9 255.16 325.21 259.36 342.12 75 385.93"/><line class="cls-12" x1="236.81" y1="329.77" x2="240.56" y2="344.85"/><line class="cls-12" x1="246.24" y1="327.43" x2="249.98" y2="342.51"/><line class="cls-12" x1="76.62" y1="369.57" x2="80.37" y2="384.65"/><line class="cls-12" x1="86.04" y1="367.23" x2="89.79" y2="382.31"/><line class="cls-12" x1="95.47" y1="364.89" x2="99.21" y2="379.97"/><line class="cls-12" x1="104.89" y1="362.55" x2="108.64" y2="377.62"/><line class="cls-12" x1="114.31" y1="360.2" x2="118.06" y2="375.28"/><line class="cls-12" x1="123.73" y1="357.86" x2="127.48" y2="372.94"/><line class="cls-12" x1="133.16" y1="355.52" x2="136.9" y2="370.6"/><line class="cls-12" x1="142.58" y1="353.18" x2="146.33" y2="368.26"/><line class="cls-12" x1="152" y1="350.84" x2="155.75" y2="365.92"/><line class="cls-12" x1="161.43" y1="348.5" x2="165.17" y2="363.58"/><line class="cls-12" x1="170.85" y1="346.16" x2="174.6" y2="361.24"/><line class="cls-12" x1="180.27" y1="343.82" x2="184.02" y2="358.89"/><line class="cls-12" x1="189.7" y1="341.47" x2="193.44" y2="356.55"/><line class="cls-12" x1="199.12" y1="339.13" x2="202.87" y2="354.21"/><line class="cls-12" x1="208.54" y1="336.79" x2="212.29" y2="351.87"/><line class="cls-12" x1="217.97" y1="334.45" x2="221.71" y2="349.53"/><line class="cls-12" x1="227.39" y1="332.11" x2="231.14" y2="347.19"/></g></g><g id="羊"><g id="羊毛"><polygon class="cls-18" points="493.77 360.92 545.84 367.72 519.81 493.23 484.29 478.9 493.77 360.92"/><path class="cls-19" d="M580.49,471.27a25.61,25.61,0,0,0-46.12,22.21l.77,4a13.71,13.71,0,0,0-23.23-9,17.14,17.14,0,0,0-17.05-15.42c-9.31,0-17.17,4.79-17.17,24a19.78,19.78,0,0,0-33.23-13.56,26.59,26.59,0,0,0-52,5.42,16.8,16.8,0,0,0-15.8-4.58,19.67,19.67,0,0,0-32-1.15l-.78.82a15.86,15.86,0,0,0-27.47,8.66,13.9,13.9,0,0,0-2.43-.23,13.7,13.7,0,0,0-12.85,9,8.22,8.22,0,0,0-16.31-.22,12,12,0,0,0-13.4,2.43,10.33,10.33,0,0,0,.93-4.27,10.45,10.45,0,0,0-16.05-8.82,14.8,14.8,0,1,0-23.4,18,25.64,25.64,0,0,0-42,19.72,25.82,25.82,0,0,0,.37,4.33,13.58,13.58,0,0,0-5.11,10.62,12.44,12.44,0,0,0,.07,1.37,23.16,23.16,0,0,0-23.56,36.8,15,15,0,0,0-2.12,13.76,28.08,28.08,0,0,0-3.33-.21,27.1,27.1,0,0,0-11.5,51.63,36.19,36.19,0,0,0-5.35,71.22,25.47,25.47,0,0,0-1,6.92,25.75,25.75,0,0,0,21.31,25.36A17.6,17.6,0,0,0,177,773a17.59,17.59,0,0,0,25.91,9.81,43.49,43.49,0,0,0,77.33,18.78A19.22,19.22,0,0,0,308,812.83a12.83,12.83,0,0,0,19.28-1,22.18,22.18,0,0,0,34.62,2,29.62,29.62,0,0,0,49.76-3.23,29.93,29.93,0,0,0,39.65,1,34.26,34.26,0,0,0,54.65-14,20.53,20.53,0,0,0,25.12-7.45,24.12,24.12,0,0,0,30.19-35.34,50.29,50.29,0,0,0,7.51.57,49.58,49.58,0,0,0,46.43-32.2,18.37,18.37,0,0,0,.72-32.67l0-.09a20.09,20.09,0,0,0,9-29,36.09,36.09,0,0,0,35.8-56,24.7,24.7,0,0,0-23.6-29c0-.52.08-1,.08-1.58a21.26,21.26,0,0,0-29-19.8A19.14,19.14,0,0,0,592.46,547h-.17l-3.5,0,.79,0a17.41,17.41,0,0,0,12-30.05A15.65,15.65,0,0,0,603.42,492a17.12,17.12,0,0,0-21.59-21.64Z"/><path class="cls-20" d="M197.65,564.07S169,659.29,182,681.94s35.72,22,50.18,22c18.85,0,52.4-66,52.4-123.51"/><path class="cls-20" d="M185.47,550.64s-10.66,7.23-20.92,11.1-28.65,6-28.65,11.23,6.58,12,20.52,13,32.71-1.37,47-12"/><path class="cls-20" d="M320.54,580.43s2.36,21,16.86,28.54,2.89,14.51-2.92,14.51-34.45-2.71-50.74-27.12"/><path class="cls-19" d="M192.71,547.45c-12.88,1.41-7,21.27,5.16,13.27a8.63,8.63,0,0,0,7.1,7.87c-3.49,4.77-1.1,14.21,6.3,16.15-.25,12,13.8,21.27,25.17,14.32,8.61,9.43,25.58.48,19.86-13a7.74,7.74,0,0,0,8.32-6.4c3.17,2.75,12.16,1.48,14.22-4.63l.34,1.4c-2.42,2-3.37,7.22.13,10.54-3.16,1.75-5.52,7.23-1.65,11.32.42,18.11,27,10.16,17.28-5.16,3.58.78,8.84-2.83,8.06-8.24,14.36,8.49,27.6-12.52,13.34-21.69"/></g><g id="脸"><path class="cls-12" d="M180.31,584.17s-1.24,10.67,7.85,11.83"/><circle class="cls-21" cx="204.35" cy="599.17" r="2.8"/><circle class="cls-21" cx="260.09" cy="608.7" r="2.8"/><path class="cls-21" d="M213.9,682.9s5-4.25,14.52-4.25,7.94,10.64,7.94,10.64-4.21,10.26-23.81,9.1c-9.1,0-17.61-9.1-17.61-19.74S209.26,676.71,213.9,682.9Z"/></g><g id="车牌"><path class="cls-22" d="M282,611.51s18.9,37.33,10.57,56.17"/><path class="cls-22" d="M189.59,691.64s15.22,26.88,35.09,30.23"/><rect class="cls-23" x="223.43" y="691.11" width="95.58" height="42.64" rx="4.23" transform="translate(-385.1 324.68) rotate(-38.58)"/><line class="cls-23" x1="239.1" y1="718.52" x2="285.74" y2="681.38"/><circle class="cls-16" cx="294.1" cy="675.68" r="3.35"/><circle class="cls-16" cx="232.15" cy="726.1" r="3.35"/></g><g id="脚"><ellipse class="cls-24" cx="215.69" cy="871.59" rx="18.61" ry="33.48" transform="translate(-223.21 88.29) rotate(-15.36)"/><path class="cls-24" d="M617.3,778c4.23-4.29,9-6.42,13.57-5.46C640.93,774.62,646,791,642.2,809.1s-15,31.06-25.09,28.95-15.13-18.5-11.33-36.6a56.54,56.54,0,0,1,4.35-13"/><path class="cls-24" d="M581.72,781.48s-14.4-4.77-16-11.27c1,4.34-7.28,22.08-22.15,22-2.63,16.82,2.42,31.49,11.9,33.48,10.06,2.11,21.3-10.85,25.1-28.94a56.26,56.26,0,0,0,1.15-15.24"/><ellipse class="cls-24" cx="132.7" cy="817.23" rx="18.61" ry="33.48" transform="translate(-211.78 64.36) rotate(-15.36)"/><path class="cls-20" d="M566.29,755.35l-5-.5s4.91,7.38,4.12,13.49c0,15,55.13,21.5,55.13,21.5,7.74-4.93,0-10.75,0-10.75s-54.26-10.37-54.26-23.74"/><path class="cls-20" d="M152.7,825.88c0-11.17,23.63-39.11,28.23-44.43a1.12,1.12,0,0,0-.13-1.58,14.2,14.2,0,0,1-3.75-6.62c-.09-.38-.7-.35-1.09-.33a13.8,13.8,0,0,1-4.71-1.06s-23.52,21.46-23.5,32.27c.93,1.39,5,13.71,4.95,19V826"/><path class="cls-20" d="M235.64,884.12c.55-2.48-3-20.89-3-20.89C232.59,853.11,273,809,273,809s7.11-5,7.34-7c0,4,7.77,10.38,7.77,10.38S236.61,860.64,235.64,884.12Z"/></g></g><g id="人"><polygon class="cls-18" points="344.4 377.66 407.26 357.25 411.78 547.45 363.52 504.19 344.4 377.66"/><g id="南头"><path id="头发" class="cls-18" d="M344.81,301.32s-10.33-6.29-10.33-25.83,17.23-12,17.23-12l-1.26,6.19s10.16-38.9,51.2-38.9c9.09,0-.78,7.54-.78,7.54a79.38,79.38,0,0,1,37.55-10.06c21.1,0,13.55,19.35,13.55,19.35s14.13-4.45,14.13,1.36-6.39,6.77-6.39,6.77,13.74-4.41,13.74,6.31-6.58,7.63-6.58,7.63,8.71-.32,8.71,7.29-9.87,11.16-9.87,11.16,6.77-2.77,6.77,3.23-24.77,22.06-24.77,22.06,17.61-12.58,17.61-9.1-25.93,30.2-56.83,31.5"/><path id="脖子" class="cls-20" d="M352.61,376.71s.33,17.16,18.91,17.16,23.36-14.37,23.36-26.15"/><path id="face" class="cls-20" d="M407.52,322.26c0,5.81,12.19,4.26,12.19,4.26,6.9.18,12.19-4.78,12.19-13.55s-1.8-16.78-10.19-16.78-14.19,5.94-14.19,5.94,8.59-4.63,6.58-6.45c.28-4.25-3.87-18.71-29.65-18.71C354.61,277,346,298.78,346,298.78S334.48,321.23,334.48,358c0,20,26.33,20,31.62,20s42.84.9,42.84-51.61Z"/><circle class="cls-21" cx="367.58" cy="288.13" r="2.32"/><circle class="cls-21" cx="384.45" cy="288.13" r="2.32"/><path class="cls-7" d="M372.42,301.36s3.1-.78,3.1,4.77-3.49,56-19.62,56C339.26,362.13,365.36,302.92,372.42,301.36Z"/></g><path id="女腿" class="cls-24" d="M486.17,564.67s-26.92,41.59-32.6,70.23,5.17,115.75,5.17,115.75,21.29,2.71,32.13-1.94c0,0,2.77-66.39,17-97.16,0,0,23.57-61.18,27.27-67.95C535.17,583.6,520.94,550.56,486.17,564.67Z"/><path id="女鞋" class="cls-25" d="M464.81,751.19s-28.71,40.87-28.71,50,11.73,8.71,15.83,6,36-25,36-34.45-3.7-22.17-3.7-22.17S477.78,752.24,464.81,751.19Z"/><path id="女衣" class="cls-25" d="M516.55,475.94l6.12-71.65c0-12.74,22.05-49.78,22.05-49.78s38.67,9.43,38.67,43c0,0,1.55,131.61-22.45,131.61s-17.46,24-17.46,24,9.46,38.9,1.71,38.9-19.61-29.29-41.54-29.29S483,567.55,483,567.55s32.26-51.36,33.55-91.61"/><path id="女袖2" class="cls-25" d="M479.69,409.34c-4.6,0-16.69,15-16.69,15-9.58-2.32-10.36-35.87-10.36-35.87,2.67-12.38,27.82-31.3,27.82-31.3,6.33,4.06,15.44,2.92,15.44,2.92s1.83,67.11-4,77.3l-16.33,16c7.55-22.82,2.78-63.11,2.78-63.11Z"/><path class="cls-26" d="M397.19,386.9v164c0,17,43,11.23,51.49,11.23S463,456.45,463,440.19c0-78.06-56.66-92.5-56.66-92.5s-3.82,12.71-9.15,17.63c0,0,5.29,15.91,0,21.58"/><path id="女袖" class="cls-25" d="M562.74,433.87s-79.48,78.2-106.32,78.2c-8.26,0-15-26.59-15-26.59s77.68-71,87-89.54,13.16-22.2,24.52-22.2S565.32,380,565.32,380"/><path class="cls-12" d="M414.1,307.81a6.53,6.53,0,0,1,5.61-3,7.26,7.26,0,0,1,5.87,3"/><path class="cls-12" d="M415.77,316.32s3.94-1.42,3.94-11.48"/><path class="cls-12" d="M431.9,291.16s12.26,2.07,19.87-10.06"/><path class="cls-12" d="M420.55,273.87s9-12,24.77-10.32"/><path class="cls-12" d="M347,272.32s-3.74,6.2,0,10.33"/><path class="cls-26" d="M430.1,382s-19.62-14.71-32.91,4.9-22.9,79-89.42,130.33c-7.22,6.45,16.52,23.74,24.52,23.74s90.07-60.13,90.58-88"/><path class="cls-26" d="M367.43,449.31c.94-10.24-18.51-73.61-18.51-73.61-19.67-4.93-14.21-26.51-14.21-26.51s-89.64,87.13-89.64,134l24.51,19s50.32-73,60.13-73,13.12,54.89,13.12,54.89S367,454.49,367.43,449.31Z"/><path class="cls-12" d="M399.71,362.13s11.05,4.76,12.07,14.77"/><path class="cls-12" d="M338.64,369.51l-7.9,18.68s19.95,5.45,25.55,12.51"/><path class="cls-12" d="M325.47,502.2s24.64,14.67,24.64,28.69"/><path id="羊毛-2" data-name="羊毛" class="cls-19" d="M232.91,523.49s-8.24-3.55-3.21-11.42,10.07-2.84,10.07-2.84-13.19-12.16,3.62-15.62c0,0-2.95-8.13,6.72-9.48s8.25,12.45,8.25,12.45,3.36-15.28,11.68-9.51-3,15.69-3,15.69,8.21,1.11,1.63,8.5-3.08,10.88-3.08,10.88S255.07,534.39,232.91,523.49Z"/><path class="cls-20" d="M296.94,530.89s-14.71,4.92-17.29,18.85c0,15.74,13.42,20.65,26.77,20.65,9.49,0,22.71-30,22.71-30s-19.67-8.31-22.71-20.06c-3.77-3-6.68-1.84-6.68-1.84A10.62,10.62,0,0,1,296.94,530.89Z"/><path class="cls-20" d="M231.13,525.23S220,545.1,259.77,545.1c9.81,0,7.28-20-8-21.94C251.77,523.16,233.58,519.81,231.13,525.23Z"/><path class="cls-18" d="M347,626.9s-7.23,16.26-7.23,27.62c0,53.42,9.55,89.54,12.39,100.38s25.55,10.33,25.55,10.33a52.11,52.11,0,0,0,22.45-5.68s-15.22-34.07-10.06-77.94,48-118.9,48-118.9l-70.66-2.9Z"/><path class="cls-27" d="M393.26,762.46c1.84,34.41-28.2,54.77-38.26,54.77s-13.16-5-13.16-13.94,20.57-40.06,20.57-40.06S377.62,767.89,393.26,762.46Z"/><path class="cls-12" d="M514.68,288.13s-21.42.9-7.33,13.48"/><path class="cls-12" d="M568.83,330.45a12.68,12.68,0,1,1-8.61.33"/><path class="cls-12" d="M583.65,288.13s5.16-6.09,19.09-6.09,18.84,7.32,33.29,7.32,19.87-12.65,27.1-12.65"/><path class="cls-12" d="M693.9,272.78s-19.93,19-32.32,19"/><path class="cls-12" d="M415.39,486.26s4.64,40,26.06,40"/><path class="cls-20" d="M417,495.08l14.59-6.5-9.24,3.87s-2.33-6.71,2.06-10.32,17,3.35,17,3.35c3.61,18.33,12.12,25.56,12.12,25.56s-9.33,13.44-19.5,13.44C434.07,524.48,424.18,522.6,417,495.08Z"/><path class="cls-20" d="M266.36,511.26s-9.13,1.1-5.25,12.71S274,531.65,274,528.31C273.9,524.53,274.68,511.1,266.36,511.26Z"/><path id="羊毛-3" data-name="羊毛" class="cls-19" d="M299.74,518.48s4.55-15.7-6.67-14.29c-4.91-2-14.33-5.54-15.49,4.91-3.63-2.07-15,8.13,1.16,16-7.74-1.94-14.21,18.33,5.86,14.33S301.26,523.36,299.74,518.48Z"/><path class="cls-28" d="M487,769s-39,39-45,39c0,0,7,2,12-2s27.75-22.58,31-28C488,773,488,773,487,769Z"/><path class="cls-28" d="M442,786.89S456,792,454,799a114.92,114.92,0,0,1-12.63,9.5S434,806,437,798,442,786.89,442,786.89Z"/></g><g id="前景"><g id="灯笼-3" data-name="灯笼"><path class="cls-7" d="M559.1,194.87l-.08,6.26a61.13,61.13,0,0,0,16.58,2.52,40.48,40.48,0,0,0,15.29-2.53l.07-5.87"/><path class="cls-7" d="M561.71,69l.07-6.26a61.2,61.2,0,0,1,16.63-2.12,40.31,40.31,0,0,1,15.23,2.89l-.07,5.86"/><path class="cls-17" d="M537.13,84.73c.19-16.25,33.75-16.89,40.71-16.81s41.51,3.85,41.34,17.79l-1.08,91.6s1.07,18.27-41.25,17.77c-44.77-.53-40.83-17.32-40.83-17.32Z"/><path class="cls-12" d="M559,201.13s1.65,21.73-3.69,22.68"/><path class="cls-12" d="M566,203.65s1.64,21.73-3.7,22.68"/><path class="cls-12" d="M574.39,204.28S576,226,570.7,227"/><path class="cls-12" d="M583.31,204.22s3.06,21.58-2.21,22.88"/><path class="cls-12" d="M590.79,201.83s4.13,21.4-1.07,23"/><path class="cls-7" d="M611.83,211.47l-.88,6.2a61.24,61.24,0,0,0,16.11,4.64,40.18,40.18,0,0,0,15.49-.53l.83-5.81"/><path class="cls-7" d="M630.71,87l.89-6.19a61,61,0,0,1,16.76,0,40.22,40.22,0,0,1,14.73,4.83l-.83,5.81"/><path class="cls-29" d="M604.3,99.42C606.59,83.32,640,87,646.85,88s40.66,9.19,38.69,23l-12.93,90.7S671.31,220,629.41,214c-44.33-6.32-38.24-22.46-38.24-22.46Z"/><path class="cls-12" d="M611,217.67s-1.18,21.76-6.6,22"/><path class="cls-12" d="M617.55,221.07s-1.18,21.76-6.6,22"/><path class="cls-12" d="M625.78,222.78s-1.18,21.76-6.6,22"/><path class="cls-12" d="M634.63,223.87s.24,21.8-5.15,22.41"/><path class="cls-12" d="M642.36,222.47s1.32,21.75-4,22.63"/></g><g id="冰糖葫芦"><circle class="cls-7" cx="469.8" cy="191.53" r="13.92"/><circle class="cls-7" cx="489.27" cy="172.06" r="13.92"/><circle class="cls-7" cx="508.61" cy="151.81" r="13.92"/><circle class="cls-7" cx="527.41" cy="130.43" r="13.92"/><path class="cls-12" d="M441.84,224.07l19.4-21.29"/><path class="cls-12" d="M537.53,119.06l7.19-7.9"/></g><g id="红包"><path class="cls-29" d="M282.61,168.45s-5.72,33.43-11.76,34.33,35,19.34,60.95,16.12S352,175.17,352,175.17,302.74,178.9,282.61,168.45Z"/><circle class="cls-16" cx="301.86" cy="193" r="7.29"/><path class="cls-12" d="M282.61,168.45S296,186,299.9,186"/><path class="cls-12" d="M270.85,202.78s15,5,29-2.49"/></g><g id="奶茶"><path class="cls-27" d="M90,942.36s.76-9.61,49.11-17.76,50-1.17,50-1.17l8.14,99.21s-.56,10.17-35.55,16.73-39.41-1.35-42.05-1.65C118,1032.83,90,942.36,90,942.36Z"/><line class="cls-12" x1="184.41" y1="867.04" x2="197.23" y2="1021.48"/><line class="cls-12" x1="73.54" y1="888.45" x2="119.14" y2="1036.56"/><ellipse class="cls-12" cx="158.19" cy="1029.02" rx="39.77" ry="10.84" transform="translate(-192.22 48.65) rotate(-10.93)"/><circle class="cls-30" cx="137.14" cy="964.85" r="7.29"/><path class="cls-31" d="M152.57,810.22,103.71,850.1s-1.69,1.13-2.18,4.71,3.63,13.33,3.63,13.33l55.39,153.34s4.54,8.08,11.9,4.61,5.66-10.42,5.66-10.42l-54.34-152.9s-1.5-5.45,2.48-9.27,38.69-28.73,38.69-28.73a11.19,11.19,0,0,0-.61-12.48C159.65,806.06,152.57,810.22,152.57,810.22Z"/><circle class="cls-12" cx="157.45" cy="818.59" r="9.33"/><path class="cls-12" d="M178.05,1015.36l.06.31a9.33,9.33,0,0,1-18.32,3.54c0-.2-.07-.39-.09-.58"/><path class="cls-12" d="M159.79,1019.21,102.12,859.74a10,10,0,0,1,3.11-11.18L152.89,810"/><path class="cls-12" d="M161.62,826.93,127.5,852.39a10,10,0,0,0-3.44,11.38L177.94,1015"/><path class="cls-12" d="M145.54,923.46c23.46-3.89,41.91-4,42.67-.07.85,4.41-20.44,12.23-47.57,17.47s-49.8,5.91-50.65,1.5c-.72-3.75,14.57-10,35.84-15"/><path class="cls-12" d="M125.25,865.07l1.23-.24c30.62-5.92,56.55-4.92,57.93,2.21s-22.32,17.72-52.94,23.63-56.55,4.92-57.93-2.22c-1-5.42,12.38-12.83,32.31-18.66"/><circle class="cls-30" cx="131.18" cy="985.79" r="6.63"/><circle class="cls-30" cx="144.44" cy="1001.85" r="6.63"/><circle class="cls-30" cx="125.86" cy="1016.18" r="6.63"/><circle class="cls-30" cx="183.53" cy="982.69" r="6.63"/><circle class="cls-30" cx="172.5" cy="1002.82" r="6.63"/><circle class="cls-30" cx="169.06" cy="1015.34" r="7.29"/><circle class="cls-30" cx="141.97" cy="1025.02" r="7.29"/><circle class="cls-30" cx="119.32" cy="1000.98" r="7.29"/><circle class="cls-30" cx="187.06" cy="1013.56" r="7.29"/><circle class="cls-30" cx="165.2" cy="966.92" r="7.29"/><circle class="cls-30" cx="149.26" cy="979.16" r="7.29"/></g><g id="风车"><path class="cls-16" d="M579.85,729.33l1,162-63.83.41-2.74-91.08a35,35,0,0,1,12.77-28.1Z"/><path class="cls-12" d="M514.83,817.48c.14,21.95,65.7,13.75,66.06,69.78"/><path class="cls-32" d="M419,893.31l162-1,.41,63.84-91.08,2.73a35,35,0,0,1-28.09-12.77Z"/><path class="cls-12" d="M507.12,958.33c22-.14,13.75-65.7,69.78-66.06"/><path class="cls-33" d="M583,1054.19l-1.05-162,63.84-.41,2.73,91.08a34.93,34.93,0,0,1-12.77,28.1Z"/><path class="cls-12" d="M648,966c-.15-21.95-65.71-13.75-66.07-69.78"/><path class="cls-34" d="M743.83,890.2l-162,1-.41-63.84,91.09-2.73a34.92,34.92,0,0,1,28.09,12.77Z"/><path class="cls-12" d="M655.68,825.19c-21.95.14-13.75,65.7-69.77,66.06"/><path class="cls-34" d="M465.45,778,580.71,891.79l-44.85,45.43-66.34-62.48a34.93,34.93,0,0,1-10.83-28.89Z"/><path class="cls-12" d="M481.8,886.31c15.62,15.42,56.19-36.73,96.06,2.62"/><path class="cls-16" d="M467.65,1007.71,581.43,892.45l45.43,44.85-62.47,66.34a35,35,0,0,1-28.9,10.84Z"/><path class="cls-12" d="M576,991.36c15.42-15.62-36.73-56.19,2.63-96.06"/><path class="cls-32" d="M697.36,1005.52,582.09,891.73l44.85-45.43,66.34,62.48a34.93,34.93,0,0,1,10.84,28.89Z"/><path class="cls-12" d="M681,897.21c-15.62-15.42-56.18,36.73-96-2.63"/><path class="cls-33" d="M695.16,775.8,581.38,891.07l-45.44-44.85,62.48-66.34A34.93,34.93,0,0,1,627.31,769Z"/><path class="cls-12" d="M586.85,792.16c-15.42,15.62,36.74,56.18-2.62,96.06"/></g></g><path class="cls-19" d="M340.54,621.65a20.6,20.6,0,0,0,37.68-14.38,12.45,12.45,0,0,0,5.28-9.48,21.94,21.94,0,0,0,8-30.32,20,20,0,0,0,5,.66A19.65,19.65,0,0,0,399.36,529a14.95,14.95,0,0,0-16.62-5.11,15,15,0,0,0-10.55-9.16"/><path class="cls-35" d="M580.19,539.68v0a11.85,11.85,0,0,0-18.09-10.07,12.58,12.58,0,0,0-20.68,13.59,13,13,0,0,0,6.31,24.4,13.49,13.49,0,0,0,2.93-.33"/><path d="M252.76,734.11l-10.91,8.69L236.43,736l3.76-3-.35-1,2.09-1.49.34.87,5.06-4Zm-6-4-7.52,6,3.2,4,7.52-6Zm-5,8.89c.31-.41.59-.8.85-1.17s.49-.75.69-1.1l-1.86,1.48-.89-1.12.69-.54-1.2-.62,1.46-1.19,1.18.66.53-.43-.94-1.18,1.55-1.1.88,1.1.55-.44-.44-1.37,1.49-1.09.39,1.31.72-.56.88,1.11-1.9,1.52q.59-.21,1.14-.36l1.34-.4.29,1.22-.73.17-.78.2-.73.21-.58.17-.22-1-.53.43,1.1,1.38-1.49,1.18-.54-.68a8.51,8.51,0,0,1-.71,1.32c-.28.45-.61.95-1,1.51Zm4.44,3.14.27.52,7.47-6,.46.74c.21.34.43.7.66,1.09a4.69,4.69,0,0,1,.49,1.09,1.49,1.49,0,0,1,0,.86,2.23,2.23,0,0,1-.46.81,11.36,11.36,0,0,1-.93,1l-1.71,1.58-1.84-1,1.93-1.73a5.11,5.11,0,0,0,.46-.44,1.72,1.72,0,0,0,.24-.29.3.3,0,0,0,.08-.19.58.58,0,0,0,0-.2c-.06-.11-.11-.22-.16-.33l-7.69,6.12-1-2.19-2.23,1.77-1-1.28L254,733.83l1,1.28Z"/><path d="M262.58,729l-4.19,3.34,1.15,3.26-2.35,1.87-4.37-13.38,3-2.41,12,7.27-2.39,1.91Zm-2.14-1.35L256,724.81l-.18.15,1.75,5Z"/><path d="M266.65,724a6.48,6.48,0,0,1-.72.5.89.89,0,0,1-.54.13.93.93,0,0,1-.5-.26,5.26,5.26,0,0,1-.6-.66,4.84,4.84,0,0,1-.49-.71,1,1,0,0,1-.15-.55.85.85,0,0,1,.24-.51,6.26,6.26,0,0,1,.66-.59,4.6,4.6,0,0,1,.71-.49.91.91,0,0,1,.55-.13,1,1,0,0,1,.52.26,5.73,5.73,0,0,1,.58.64,4.57,4.57,0,0,1,.5.73.91.91,0,0,1,.14.55.93.93,0,0,1-.26.5A4.91,4.91,0,0,1,266.65,724Z"/><path d="M268.28,711.79a12.19,12.19,0,0,1,2.22-1.43,4.63,4.63,0,0,1,2.2-.51,4.56,4.56,0,0,1,2.27.77,10,10,0,0,1,2.44,2.33,9.59,9.59,0,0,1,1.63,2.77,4.82,4.82,0,0,1,.24,2.4,4.69,4.69,0,0,1-.92,2.1,10.33,10.33,0,0,1-1.86,1.89L273,724.93l-8.22-10.32Zm6.56,8.48a6,6,0,0,0,1.12-1.14,2.32,2.32,0,0,0,.46-1.21,2.85,2.85,0,0,0-.27-1.41,7.51,7.51,0,0,0-1.07-1.7,8,8,0,0,0-1.48-1.49,3,3,0,0,0-1.32-.57,2.28,2.28,0,0,0-1.27.2,6.31,6.31,0,0,0-1.33.84l-1.16.92,5.16,6.48Z"/><path d="M280.81,715.51c.33-1.44.58-2.67.77-3.69s.29-1.88.34-2.57a6.28,6.28,0,0,0-.07-1.69,2.72,2.72,0,0,0-.5-1.1,1.67,1.67,0,0,0-1.4-.78,3.13,3.13,0,0,0-1.57.74,9.78,9.78,0,0,0-1,1,11.39,11.39,0,0,0-1,1.29l-1.43-1.8a9,9,0,0,1,1.07-1.32,13.72,13.72,0,0,1,1.37-1.23,5.53,5.53,0,0,1,3.23-1.4,3.33,3.33,0,0,1,2.71,1.45,5.84,5.84,0,0,1,.79,1.28,4.91,4.91,0,0,1,.36,1.55,10.88,10.88,0,0,1-.1,2.13c-.11.83-.31,1.83-.59,3l-.24,1,.1.12,4.5-3.59,1.42,1.79-7.21,5.74Z"/><path d="M294.05,708.37a6.19,6.19,0,0,1-1.73,1,3.31,3.31,0,0,1-1.85.11,5.3,5.3,0,0,1-2.06-1,16.38,16.38,0,0,1-4.17-5.24,5.35,5.35,0,0,1-.54-2.22,3.32,3.32,0,0,1,.53-1.78,6.44,6.44,0,0,1,1.37-1.46,6.05,6.05,0,0,1,1.72-1,3.36,3.36,0,0,1,1.84-.12,5.41,5.41,0,0,1,2,1,17.14,17.14,0,0,1,4.17,5.24,5.24,5.24,0,0,1,.55,2.24,3.25,3.25,0,0,1-.52,1.77A6.1,6.1,0,0,1,294.05,708.37Zm-1.48-1.85a2.21,2.21,0,0,0,.62-.74,1.48,1.48,0,0,0,.07-.92,4,4,0,0,0-.55-1.27,15.45,15.45,0,0,0-1.28-1.8,18.13,18.13,0,0,0-1.45-1.64,4.53,4.53,0,0,0-1.13-.84,1.45,1.45,0,0,0-.93-.14,2.14,2.14,0,0,0-.86.44,2.05,2.05,0,0,0-.61.73,1.39,1.39,0,0,0-.07.94,4.55,4.55,0,0,0,.57,1.29,17.57,17.57,0,0,0,1.27,1.78,17,17,0,0,0,1.46,1.65,4.13,4.13,0,0,0,1.12.82,1.37,1.37,0,0,0,.91.13A2,2,0,0,0,292.57,706.52Z"/><path d="M296.72,702.85c.32-1.44.58-2.67.76-3.69s.3-1.88.35-2.57a6.2,6.2,0,0,0-.08-1.69,2.53,2.53,0,0,0-.5-1.1,1.6,1.6,0,0,0-1.39-.78,3,3,0,0,0-1.57.74,8,8,0,0,0-1,1,11,11,0,0,0-1,1.28l-1.43-1.8a9.62,9.62,0,0,1,1.07-1.31,16.45,16.45,0,0,1,1.37-1.24,5.54,5.54,0,0,1,3.24-1.39,3.28,3.28,0,0,1,2.7,1.45A5.43,5.43,0,0,1,300,693a4.47,4.47,0,0,1,.36,1.55,10.1,10.1,0,0,1-.1,2.13c-.11.83-.31,1.84-.59,3l-.24,1.05.1.11,4.5-3.58,1.42,1.78-7.21,5.74Z"/><path d="M302.74,687.54,300.6,690l-1.44-1.81,2.59-3.09,1.62-1.29,8.22,10.32-2.19,1.74Z"/></g><g id="女头"><path class="cls-18" d="M492,284.36s-7.48.61-7.48-7.39c0-16,27.45-51.1,84.39-51.1,42.32,0,40,5.94,64.77,5.68s14.71-7.48,35.61-7.48S682,238.26,695.9,238.26s26.84,4.31,26.84,16,4.13,13.2,10.58,13.2,9.81,6.79,9.81,12.3-2.32,10.93-13.94,10.93-24.25,7-37.16,7-32.77,17.55-47,17.55c0,0-73.52.45-73.52,9.78"/><path class="cls-20" d="M534.81,342.07s-9.29,18.77-42.39,18-19.94-43.75-19.94-43.75,15.55-46.45,53.65-46.45S563.26,297,563.26,297s0,18-13.36,18c11.23-2.33,22.26-10.08,22.26,4s-8.51,18.39-24.58,15.1c0,3.56-1.12,10.9-3.64,18.68-4.22,13-12.35,27.19-25.78,27.19-21.48,0-19.74-17.87-19.74-17.87"/><circle class="cls-21" cx="526.13" cy="284.36" r="2.32"/><circle class="cls-21" cx="509.68" cy="282.04" r="2.32"/><ellipse class="cls-7" cx="504.61" cy="323.1" rx="10.84" ry="15.48"/></g><g id="红包-2" data-name="红包"><path class="cls-36" d="M591.93,366.43l26.75-29.62s42.57,8.71,45.28,61.74c-6.2,24.64-42,24.64-42,24.64S625.25,390.94,591.93,366.43Z"/><circle class="cls-16" cx="631.61" cy="367.28" r="8.18"/><path class="cls-12" d="M618.68,336.81s14.84,12.4,14.84,22.3"/><path class="cls-12" d="M591.93,366.43s31.51-4.33,31.51.85"/></g><g id="梅花"><path id="树枝" class="cls-37" d="M79.23,194.07s39.45,13.54,73.71-12.58S274.68,98.26,274.68,98.26s17.8-9.48,7.93-19.35-18.84-2.52-21.48-17c0-7.93,6.58-11,18.19-11,0,0,5.1-.64,5.1,8.13s4.13,29.16,18.71,15.23,15-28.39,15-28.39-5.81-6.07-.65-5.42-2.45-6.32-.38-13,12.51-10.71,12.51.64-3.22,12.91-3.22,12.91,7.48-2.59,4.9,2.7-15.1,15.75-14.07,23.23,4.26-2.45,4.26-2.45,1.94-7.36,6.71.26-10.84,9.55-10.84,9.55L216.16,147.36s3.87-2,3,1.42-9.61,3-9.61,3-45.45,29.42-49.21,36.13S136.42,201.55,130.74,201,124,199,124,199s40,14.71,56.26,10.58c0,0,8.26-3.35,7.48,2.58s-27.46,4.39-27.46,4.39-47.64-12.39-81.24-10.58"/><circle class="cls-38" cx="181.2" cy="199.17" r="8.38"/><path class="cls-38" d="M176.5,175.17a12,12,0,0,0-10.09,5.51A11,11,0,0,0,151.51,191a11.16,11.16,0,0,0,.25,2.33,14,14,0,1,0,24.38,5.87l.36,0a12,12,0,0,0,0-24Z"/><path class="cls-38" d="M196.43,227.27a13.93,13.93,0,0,0-23.54-10.1,11.42,11.42,0,0,0-15.61-.17,10.11,10.11,0,1,0-13,7.2,8.44,8.44,0,0,0-.56,3,8.27,8.27,0,0,0,13.31,6.57c.17.15.33.31.51.45a8.88,8.88,0,1,0,15.05,8.57,8.13,8.13,0,0,0,16.12-1.55,8.45,8.45,0,0,0-.14-1.43A13.94,13.94,0,0,0,196.43,227.27Z"/><path class="cls-38" d="M152.68,165.74s-12.4,7-12.4-19.09,38.4-28.91,38.4-10.07c0-14.19,21.74-14,21.74,6,9.28-7.58,22,21.59-8.47,21.59,19.57.25-22.76,25.29-22.76,6.19C169.19,181.49,147,175,152.68,165.74Z"/><path class="cls-38" d="M208.16,208.07s-20-7.23-20,11.61c0,8.77,2.14,9,4.9,9s-4.46,7,15.15,7c9.29,0,9.68-4.39,9.68-9.68s9.29-1.8,9.29-13.87S208.16,199.16,208.16,208.07Z"/><path class="cls-38" d="M333.36,172.56c9,0-1.55,18.12,19.09,18.12s18.84-6.63,18.84-9.06-2.06-18.17-15.35-18.17C352.32,163.45,334.26,166.84,333.36,172.56Z"/><path class="cls-38" d="M600.45,718.59c9,0-1.55,18.11,19.1,18.11s18.84-6.63,18.84-9.05-2.07-18.17-15.36-18.17C619.42,709.48,601.35,712.86,600.45,718.59Z"/><path class="cls-38" d="M339.13,124.43a18.16,18.16,0,0,1,17.2-11.14c13.19,0,11.44,10.84,11.44,15.87s-8.12,18.78-23.41,18.39C344.36,147.55,336.61,137.5,339.13,124.43Z"/><path class="cls-38" d="M251.78,940.76A18.14,18.14,0,0,1,269,929.63c13.18,0,11.44,10.84,11.44,15.87s-8.13,18.77-23.42,18.39C257,963.89,249.26,953.83,251.78,940.76Z"/><path class="cls-38" d="M265.89,128.29a9.65,9.65,0,0,0-18.44-4A14.64,14.64,0,1,0,248.69,151a8.9,8.9,0,0,0,11.15-13.79A9.66,9.66,0,0,0,265.89,128.29Z"/><circle class="cls-38" cx="211.41" cy="172.64" r="10.91"/><path class="cls-38" d="M320,47.37a7.63,7.63,0,0,0,0-.84,10.07,10.07,0,0,0-19.16-4.35,14.58,14.58,0,0,0-8.49,24.42,8.52,8.52,0,0,0-.1,1.24A8.95,8.95,0,0,0,310,69.44c.22-.12.44-.26.65-.4A12,12,0,1,0,320,47.37Z"/><path class="cls-38" d="M331.81,69.21a6.38,6.38,0,1,0-11.55,4.67,8.19,8.19,0,0,0-.49,2.77,8.33,8.33,0,1,0,12-7.44Z"/><path class="cls-38" d="M642.46,156.52a6.38,6.38,0,1,0-11.55,4.68,8.13,8.13,0,0,0-.48,2.76,8.32,8.32,0,1,0,12-7.44Z"/><path class="cls-38" d="M277.58,94.66a15.31,15.31,0,0,0-14.74-15.3,11.86,11.86,0,0,0-19.94-1.52,9.48,9.48,0,0,0-14,12.17,20.48,20.48,0,1,0,35.83,19.77A15.33,15.33,0,0,0,277.58,94.66Z"/><path class="cls-38" d="M236.74,117.83a12.09,12.09,0,0,0-8.82-11.63,7.93,7.93,0,0,0,.71-3.27,8,8,0,0,0-15.32-3.38A12.39,12.39,0,0,0,197.16,116a7.92,7.92,0,0,0,6,13.17,7.26,7.26,0,0,0,.93-.06,12.9,12.9,0,0,0,24.79.07A12.09,12.09,0,0,0,236.74,117.83Z"/><path class="cls-38" d="M104.65,134.16s9.55,14.05,23.41,2.46,11-20.22,11-20.22-17.54-10.32-29.22-.55S104.65,134.16,104.65,134.16Z"/><path class="cls-38" d="M205.88,267.46s9.55,14.05,23.41,2.46,11-20.22,11-20.22-17.53-10.32-29.21-.55S205.88,267.46,205.88,267.46Z"/></g></g></g></svg>